<svg width="32" height="32" viewBox="0 0 24 24" fill="none" xmlns="http://www.w3.org/2000/svg">
<path d="M11.0925 14.4045V14.019C11.0925 13.3338 9.18487 12.4777 7.62418 12.4777C6.0637 12.4777 4.15602 13.7191 4.15602 14.4045V18.258M13.0192 19.0288L14.946 15.1753H9.55082L8.39506 17.8726H6.08288M3 19.0288H21.4969M7.81696 7.08277C6.92023 7.08277 6.08288 7.76611 6.08288 8.60908V9.79548C6.08288 10.6384 6.92023 11.3218 7.81696 11.3218C8.71349 11.3218 9.55082 10.6384 9.55082 9.79548V8.60908C9.55082 7.76611 8.71349 7.08277 7.81696 7.08277ZM11.4778 4.77065V10.1656C11.4778 10.5914 11.8226 10.9363 12.2484 10.9363H13.0191V12.592C13.0191 12.9498 13.4642 13.1145 13.697 12.8427L15.3312 10.9363H20.3409C20.7664 10.9363 21.1118 10.5914 21.1118 10.1656V4.77065C21.1118 4.3449 20.7664 4 20.3409 4H12.2484C11.8226 4 11.4778 4.3449 11.4778 4.77065Z"  stroke-width="1"/>
</svg>
