<svg width="55" height="55" viewBox="0 0 24 25" fill="none" xmlns="http://www.w3.org/2000/svg">
<path d="M19.6788 18.8868V12.2095H21.855V18.8868H19.6788ZM19.6788 18.8868L19.6787 18.2414H15.0777V19.8855H20.7669V18.8868L19.6788 18.8868ZM4.17627 18.8868H2V12.2095H4.17627V18.8868ZM4.17627 18.8868L4.17634 18.2415H8.77729V19.8856H3.08806V18.8869L4.17627 18.8868ZM11.4313 6.5542C10.7358 6.34197 10.2298 5.69521 10.2298 4.93025V4.01789C10.2298 3.0801 10.9899 2.32028 11.9274 2.32028C12.865 2.32028 13.625 3.0801 13.625 4.01789V4.93025C13.625 5.69519 13.1191 6.34195 12.4236 6.55419M11.4313 6.5542C11.5882 6.60209 11.7548 6.62785 11.9274 6.62785M11.4313 6.5542L11.4317 6.55407C11.5886 6.6018 11.7549 6.62785 11.9274 6.62785M11.4313 6.5542L9.54947 7.13113C8.62022 7.41601 7.89438 8.14602 7.61513 9.07714L6.9878 11.1694C6.89777 11.4689 6.85989 11.7753 6.8676 12.0776M11.9274 6.62785C12.1001 6.62785 12.2667 6.60209 12.4236 6.55419M11.9274 6.62785C12.1 6.62785 12.2663 6.6018 12.4233 6.55407L12.4236 6.55419M12.4236 6.55419L14.3055 7.13113C15.2347 7.41601 15.9603 8.14602 16.2396 9.07714L16.8671 11.1694C17.1936 12.2581 16.8565 13.4372 16.0037 14.1885H15.9589V13.8221M13.9115 14.1886C14.2461 14.1886 14.5478 14.3295 14.7605 14.5552M13.9115 14.1886C13.577 14.1886 13.2754 14.3295 13.0628 14.5552M13.9115 14.1886C13.5781 14.1886 13.279 14.3305 13.0665 14.5552H13.0628M13.9115 14.1886C14.2454 14.1886 14.5442 14.3305 14.7568 14.5552H14.7605M14.7605 14.5552C14.9572 14.764 15.0777 15.0453 15.0777 15.3548V20.2256M14.7605 14.5552H15.9587V13.8222L13.118 13.8222M15.0777 20.2256L12.7456 20.2256M15.0777 20.2256L15.1705 20.2256C15.487 20.2256 15.744 20.4823 15.744 20.7991V21.2348H12.7456V20.2256M12.7456 20.2256V15.3548C12.7456 15.0453 12.8661 14.764 13.0628 14.5552M13.0628 14.5552H10.7921M9.94342 14.1886C9.60881 14.1886 9.30715 14.3295 9.0945 14.5552M9.94342 14.1886C10.2779 14.1886 10.5795 14.3295 10.7921 14.5552M9.94342 14.1886C9.60977 14.1886 9.31069 14.3305 9.09812 14.5552H9.0945M9.94342 14.1886C10.2771 14.1886 10.5759 14.3305 10.7885 14.5552H10.7921M9.0945 14.5552C8.89777 14.764 8.77721 15.0453 8.77721 15.3548V20.2256M9.0945 14.5552H8.36708L8.51707 14.0198M8.77721 20.2256L11.1094 20.2256M8.77721 20.2256L8.68448 20.2256C8.36793 20.2256 8.11096 20.4823 8.11096 20.7991V21.2348H11.1094V20.2256M11.1094 20.2256V15.3548C11.1094 15.0453 10.9888 14.764 10.7921 14.5552M6.8676 12.0776L7.15661 11.8949M6.8676 12.0776L5.7687 12.7725L4.83733 12.2083V15.4231M7.15661 11.8949L7.01344 12.9069V12.9173M7.15661 11.8949L7.01336 12.9067L7.01344 13.6769M7.01344 12.9173C7.11137 13.2142 7.25683 13.4961 7.44735 13.7501M7.01344 12.9173V13.6769M7.44735 13.7501C7.44753 13.7503 7.4477 13.7505 7.44788 13.7508M7.44735 13.7501C7.61496 13.8085 7.76711 13.9 7.89605 14.0165M7.44735 13.7501C7.32365 13.7069 7.19153 13.6817 7.0541 13.6775M7.44788 13.7508C7.44937 13.7528 7.45085 13.7547 7.45234 13.7567C7.61781 13.8159 7.76851 13.9049 7.89605 14.0209M7.44788 13.7508C7.61532 13.8097 7.76721 13.9016 7.89605 14.0185M7.44788 13.7508C7.3241 13.7072 7.19183 13.6817 7.0541 13.6775M7.89605 14.0209V14.0185M7.89605 14.0209C7.90105 14.0253 7.90717 14.0288 7.91207 14.0333M7.89605 14.0185V14.0165M7.89605 14.0185C7.90143 14.0234 7.90677 14.0283 7.91207 14.0333M7.89605 14.0165V13.8221M7.89605 14.0165C7.90111 14.0211 7.90613 14.0257 7.91112 14.0304M7.89605 13.8221H7.96916M7.89605 13.8221L7.8962 9.68706C7.8962 9.23609 8.26152 8.87056 8.71249 8.87056H15.1426C15.5934 8.87056 15.9589 9.23609 15.9589 9.68706V13.8221M7.89605 13.8221L7.8962 13.8223L7.96916 13.8221M7.96916 13.8221L8.20712 12.9735M7.96916 13.8221L7.91101 14.0301M7.96916 13.8221L8.05357 13.5215M8.20712 12.9735C8.24183 12.8494 8.35255 12.7668 8.47494 12.7618M8.20712 12.9735L8.05357 13.5215M8.47494 12.7618C8.50465 12.7606 8.53504 12.764 8.5652 12.7724C8.58589 12.7782 8.60542 12.7861 8.62363 12.7958M8.47494 12.7618C8.40061 12.7648 8.33063 12.7966 8.27937 12.8489M8.62363 12.7958C8.70738 12.8404 8.76319 12.9232 8.77498 13.0155C8.77977 13.0529 8.77731 13.0919 8.76653 13.1305M8.62363 12.7958C8.60547 12.7861 8.58599 12.7783 8.56535 12.7725C8.45954 12.7429 8.35111 12.7757 8.27937 12.8489M8.76653 13.1305L8.57245 13.8221M8.76653 13.1305L8.57272 13.8221M8.57245 13.8221H8.57272M8.57245 13.8221L8.51707 14.0198M8.57272 13.8221H15.9589M8.57272 13.8221L13.118 13.8222M8.57272 13.8221L8.57268 13.8223L13.118 13.8222M15.9589 13.8221L13.118 13.8222M8.05357 13.5215L7.91101 14.0301M8.05357 13.5215L8.20735 12.9736M7.91101 14.0301L7.91112 14.0304M7.91101 14.0301L8.20735 12.9736M7.91112 14.0304L7.91269 14.0339C7.91248 14.0337 7.91228 14.0335 7.91207 14.0333M7.91112 14.0304C8.11494 14.2205 8.25828 14.4746 8.30923 14.7608M7.0541 13.6775C7.0406 13.6771 7.02704 13.6769 7.01344 13.6769M4.83733 15.4231H4.79276C4.77388 15.4231 4.75524 15.424 4.73686 15.4259C4.46282 15.4537 4.24906 15.6837 4.24658 15.9643C4.24656 15.966 4.24655 15.9676 4.24655 15.9693V16.2021M4.83733 15.4231L5.07933 15.423C5.38088 15.423 5.62553 15.1784 5.62553 14.8768M4.24655 16.2021L4.83756 16.202M4.24655 16.2021L6.30483 16.2021M8.32968 15.1686V16.2021L6.30483 16.2021M8.32968 15.1686V14.9931M8.32968 15.1686C8.13629 15.0671 7.91638 15.0096 7.68297 15.0096C6.98194 15.0096 6.40196 15.5279 6.30483 16.2021M8.32968 14.9931C8.32968 14.9127 8.32131 14.8341 8.30755 14.7577L8.30923 14.7608M8.32968 14.9931C8.32968 14.9138 8.32266 14.8362 8.30923 14.7608M8.30923 14.7608L8.51707 14.0198M8.27937 12.8489C8.24626 12.8826 8.22097 12.9249 8.20735 12.9736M6.30483 16.2021C6.30483 16.2021 6.30483 16.2021 6.30483 16.2021ZM10.0448 3.63904L11.6994 3.28643C11.6994 3.28643 12.8727 4.69624 14.0871 4.12023M20.7669 12.2096V8.23462H15.8233M8.03167 8.23458H3.08806V12.2096M19.8532 21.3951H18.8321L18.3801 19.8855H20.3053L19.8532 21.3951ZM5.02285 21.3951H4.00173L3.5497 19.8855H5.47488L5.02285 21.3951ZM12.5097 11.2236C12.5097 11.6431 12.1694 11.9832 11.7499 11.9832C11.3306 11.9832 10.9905 11.6431 10.9905 11.2236C10.9905 10.8041 11.3306 10.464 11.7499 10.464C12.1694 10.464 12.5097 10.8041 12.5097 11.2236ZM8.77729 16.2318H4.17627V18.2118H8.77729V16.2318ZM12.7456 18.2416H11.1092V19.8856H12.7456V18.2416ZM12.7456 16.2318H11.1092V18.2118H12.7456V16.2318ZM15.0775 18.2118H19.6785V16.2318H15.0775V18.2118ZM5.55387 13.5113C5.55387 13.5853 5.49366 13.6457 5.41948 13.6457C5.34529 13.6457 5.28523 13.5853 5.28523 13.5113C5.28523 13.4371 5.34529 13.3769 5.41948 13.3769C5.49366 13.3769 5.55387 13.4371 5.55387 13.5113ZM6.33185 13.5113C6.33185 13.5853 6.27185 13.6457 6.19745 13.6457C6.12347 13.6457 6.06321 13.5853 6.06321 13.5113C6.06321 13.4371 6.12347 13.3769 6.19745 13.3769C6.27185 13.3769 6.33185 13.4371 6.33185 13.5113Z" stroke="CurrentColor" stroke-width="0.6"/>
</svg>
