<svg width="32" height="32" viewBox="0 0 24 24" fill="none" xmlns="http://www.w3.org/2000/svg">
<path d="M16.8964 15.7052V20.0727H3V3H16.8964V6.57339M3.00008 5.3824H16.8964M4.19124 4.19124H4.98543M5.3824 4.19124H6.1766M4.58828 13.3231H11.3381M4.58828 14.9113H12.1318M4.58828 16.4993H9.35266M4.58828 18.0875H9.35266M10.5439 16.4993H15.3083M10.5439 18.0875H15.3083M13.7201 10.9407C13.7201 10.0638 14.4312 9.35273 15.3083 9.35273M17.744 12.9796L20.0728 15.3084M10.5439 11.3379H4.98536V7.36749H10.5439V11.3379ZM18.4846 10.9407C18.4846 12.695 17.0625 14.1171 15.3084 14.1171C13.5541 14.1171 12.132 12.695 12.132 10.9407C12.132 9.18665 13.5541 7.76453 15.3084 7.76453C17.0625 7.76453 18.4846 9.18665 18.4846 10.9407Z"  stroke-width="1"/>
</svg>
