<svg width="32" height="32" viewBox="0 0 24 24" fill="none" xmlns="http://www.w3.org/2000/svg">
<path d="M8.95554 4.58799H18.4845V20.0725M10.5437 3H20.0727V18.4843M6.17637 8.95539H8.16134V6.97041M5.38225 11.3377V8.16155L7.36722 6.17616H16.8962V21.2637H5.38225V19.2785M4.58813 15.308C4.58813 14.4309 5.29918 13.7198 6.17633 13.7198M8.612 17.3468L10.9408 19.6755M9.35258 15.308C9.35258 17.0623 7.93048 18.4842 6.1764 18.4842C4.42212 18.4842 3 17.0623 3 15.308C3 13.5538 4.42212 12.1318 6.1764 12.1318C7.93048 12.1318 9.35258 13.5538 9.35258 15.308Z" stroke-width="1"/>
</svg>
