<svg width="32" height="32" viewBox="0 0 24 25" fill="none" xmlns="http://www.w3.org/2000/svg">
<path d="M6.11744 19.8714V10.2843M18.5771 10.2843V19.8714M5.26719 19.8711H19.4274M15.6164 12.0546H16.9489V13.9394H15.6164V12.0546ZM15.6164 15.7247H16.9489V18.0984H15.6164V15.7247ZM7.74544 15.7247H9.07792V18.0984H7.74544V15.7247ZM7.74544 12.0546H9.07792V13.9394H7.74544V12.0546ZM10.7284 19.8714V16.3641C10.7284 15.5159 11.4568 14.8219 12.3471 14.8219H12.3473C13.2376 14.8219 13.9659 15.5159 13.9659 16.3641V19.8714H10.7284ZM7.77816 5.7475H16.9162L19.6945 10.1978H14.7059L12.3473 7.96146L9.98843 10.1978H5L7.77816 5.7475ZM12.3472 10.447C12.9176 10.447 13.38 10.9094 13.38 11.4796C13.38 12.0497 12.9176 12.5122 12.3472 12.5122C11.777 12.5122 11.3146 12.0497 11.3146 11.4796C11.3146 10.9094 11.777 10.447 12.3472 10.447Z" stroke-width="1"/>
</svg>
