<svg width="24" height="24" viewBox="0 0 24 24" fill="none" xmlns="http://www.w3.org/2000/svg">
<path d="M8.30294 7.62015L15.6475 6.87597M11.056 16.9553L16.6118 16.3922M9.26728 17.1364L10.3055 17.0312M12.772 6.11823L11.6577 6.23118M11.2529 6.27228L10.9679 6.30124M7.53171 15.6254C6.94049 14.7982 6.59248 13.7854 6.59248 12.6913C6.59248 11.597 6.94049 10.5842 7.53171 9.75709M17.4206 8.08988C18.0118 8.9168 18.3598 9.92961 18.3598 11.0239C18.3598 12.118 18.0118 13.1308 17.4206 13.9579M18 7.50457C18.7367 8.48467 19.1733 9.70337 19.1733 11.024C19.1733 12.3394 18.74 13.5537 18.0083 14.5321M6.95233 16.2107C6.21565 15.2304 5.77905 14.0117 5.77905 12.6913C5.77905 11.3756 6.21231 10.1613 6.94399 9.18289M6.39897 16.7695C5.52204 15.644 5 14.2287 5 12.6914C5 11.1538 5.52204 9.7386 6.39897 8.61283M18.5534 6.94555C19.4301 8.0711 19.9523 9.48653 19.9523 11.0239C19.9523 12.5612 19.4301 13.9765 18.5534 15.1024M16.0314 18.8002L10.3189 19.3791C9.86831 19.4247 9.4659 19.0965 9.42026 18.6457L8.18759 6.48181C8.14195 6.03125 8.47017 5.62884 8.92073 5.58299L14.6335 5.00427C15.0841 4.95842 15.4865 5.28686 15.5321 5.73741L16.7648 17.9016C16.8104 18.3523 16.4822 18.7545 16.0314 18.8002ZM13.521 17.8312C13.5473 18.0901 13.3587 18.3212 13.0998 18.3474C12.8412 18.3735 12.6101 18.1849 12.5838 17.9263C12.5576 17.6674 12.7462 17.4363 13.005 17.4101C13.2639 17.384 13.4947 17.5726 13.521 17.8312Z" stroke-width="1"/>
</svg>
