<svg width="32" height="32" viewBox="0 0 24 24" fill="none" xmlns="http://www.w3.org/2000/svg">
<path d="M13.9363 13.4043V9.93618C13.9363 8.66329 11.8067 8.00934 10.4682 8.00934C9.12963 8.00934 7 8.66329 7 9.93618V13.4043C7 14.1539 7.70855 14.9456 8.54131 14.9456M12.3949 14.1751V10.7069M12.3949 21.1114V18.4141M8.54134 10.707V21.1114M10.4682 6.85347C11.3664 6.85347 12.0095 6.22391 12.0095 5.31217V4.54131C12.0095 3.62915 11.3664 3 10.4682 3C9.5698 3 8.9269 3.62915 8.9269 4.54131V5.31217C8.9269 6.22391 9.5698 6.85347 10.4682 6.85347ZM16.2484 18.4139H10.8534V14.175H16.2484V18.4139Z" stroke-width="1"/>
</svg>
