<svg width="40" height="40" viewBox="0 0 24 24" fill="none" xmlns="http://www.w3.org/2000/svg">
<path d="M11.469 13.0848L14.3436 15.9594M12.5431 11.2919L15.8024 14.5512M14.1801 10.0616L16.8377 12.7195M18.2604 9.83575C20.3264 10.5643 21.8081 12.532 21.8117 14.8475C21.8161 17.7863 19.4368 20.1725 16.4978 20.1766C14.7218 20.1793 13.148 19.312 12.1791 17.9768M11.6857 17.1478C11.355 16.4559 11.1691 15.6813 11.168 14.8631C11.1637 11.9245 13.5427 9.53837 16.482 9.53399C16.7568 9.53358 17.0271 9.55421 17.291 9.59402M17.3136 10.1453C17.3194 14.0976 14.1199 17.3063 10.1674 17.3123C6.21474 17.3184 3.00584 14.1191 3.00001 10.167C2.99417 6.21476 6.1937 3.00584 10.1462 3.00001C14.0988 2.99397 17.3077 6.19308 17.3136 10.1453Z" stroke-width="0.6"/>
</svg>
