<svg width="32" height="32" viewBox="0 0 24 24" fill="none" xmlns="http://www.w3.org/2000/svg">
<path d="M9.91221 18.8648H3.07578V20.364H20.3424V18.8648M9.91221 18.8648H15.8372M9.91221 18.8648V16.969L10.5962 16.969M15.8372 18.8648H20.3424M15.8372 18.8648V17.5069H18.2065M20.3424 18.8648L20.3423 17.5069H18.2065M7.95994 16.969H10.5962M10.5962 16.969V14.1873M10.5962 14.1873V11.7968H3.07571V16.969H5.67592M10.5962 14.1873C10.7187 14.114 10.8534 14.0571 10.998 14.0229L14.0594 13.3023M14.0594 13.3023C12.883 13.3023 11.9296 12.3489 11.9296 11.1725V9.67202C11.9296 8.49603 12.883 7.5422 14.0594 7.5422C15.2356 7.5422 16.189 8.49603 16.189 9.67202V11.1725C16.189 12.3489 15.2356 13.3023 14.0594 13.3023ZM14.0594 13.3023L17.1207 14.0229C17.7569 14.1727 18.2065 14.7406 18.2065 15.3939V16.14M18.2065 17.5069V17.4979L15.8372 17.4979M18.2065 16.14H20.3423V17.4979H15.8372M18.2065 16.14H15.8372V17.4979M5.5229 13.886H8.14951M7.69703 13.886C7.99754 15.5227 7.67642 18.8648 8.97786 18.8648M5.93883 13.8858C5.63811 15.5225 5.95949 18.8648 4.65784 18.8648M16.1889 10.4224L14.8177 9.56484C14.8177 9.56484 13.416 11.0607 11.9297 10.3447M5.99133 3.9401V5.98906L6.76237 6.75763M14.8808 13.6906L14.19 14.629L13.4987 13.6906M14.466 14.3023L14.9007 17.6584L14.1899 18.493L13.4788 17.6584L13.9115 14.3144M12.5636 16.9336H11.2046V18.8648H12.5636V16.9336ZM12.7264 17.309H12.5636V18.2889H12.7264C12.9423 18.2889 13.1175 18.1137 13.1175 17.8978V17.7C13.1175 17.4841 12.9423 17.309 12.7264 17.309ZM8.97786 5.98904C8.97786 7.63976 7.63976 8.97808 5.98905 8.97808C4.33812 8.97808 3 7.63976 3 5.98904C3 4.33833 4.33812 3 5.98905 3C7.63976 3 8.97786 4.33833 8.97786 5.98904Z"  stroke-width="1"/>
</svg>
