<svg width="32" height="32" viewBox="0 0 24 24" fill="none" xmlns="http://www.w3.org/2000/svg">
<path d="M12.9258 19.0874V16.7052M10.5436 16.7053V19.0875M15.3081 19.0874H8.1615M20.4695 14.323H3.00002M12.1318 15.5142H11.3376M9.35256 8.76447C9.35256 7.88754 10.0636 7.17648 10.9408 7.17648M13.3764 10.8032L15.705 13.1319M3.79399 16.7054H19.6755C20.114 16.7054 20.4695 16.3498 20.4695 15.9112V4.7942C20.4695 4.35552 20.114 4 19.6755 4H3.79399C3.35552 4 3 4.35552 3 4.7942V15.9112C3 16.3498 3.35552 16.7054 3.79399 16.7054ZM14.117 8.76447C14.117 10.5188 12.6949 11.9409 10.9406 11.9409C9.18651 11.9409 7.76442 10.5188 7.76442 8.76447C7.76442 7.01039 9.18651 5.58828 10.9406 5.58828C12.6949 5.58828 14.117 7.01039 14.117 8.76447Z" stroke-width="1"/>
</svg>
